<?xml version="1.0" encoding="UTF-8"?>
<svg version="1.1" xmlns="http://www.w3.org/2000/svg" width="600" height="600">
<path d="M0 0 C198 0 396 0 600 0 C600 198 600 396 600 600 C402 600 204 600 0 600 C0 402 0 204 0 0 Z " fill="#FEFEFE" transform="translate(0,0)"/>
<path d="M0 0 C1.11234512 -0.00021904 1.11234512 -0.00021904 2.24716187 -0.0004425 C4.70370385 0.00025539 7.16017045 0.00804206 9.61669922 0.01586914 C11.31777912 0.01773376 13.01885956 0.01915745 14.71994019 0.02015686 C19.20145139 0.02397861 23.68293029 0.03380599 28.16442871 0.04486084 C32.73575402 0.05508231 37.30708453 0.05965606 41.87841797 0.06469727 C50.85108843 0.07542854 59.82373489 0.09250088 68.79638672 0.11352539 C68.47723801 1.05761765 68.15808929 2.0017099 67.82926941 2.97441101 C66.80394109 5.93961297 66.80394109 5.93961297 66.27026367 8.33935547 C65.07301678 13.37814567 63.21410447 17.73973651 59.59277344 21.49438477 C48.48977899 27.92314844 30.17165758 24.75727967 17.79638672 24.11352539 C24.90118755 36.7728588 32.08521302 49.38063546 39.41748047 61.90966797 C43.7765671 69.35944805 48.10870683 76.82428263 52.42138672 84.30102539 C53.05012695 85.3910083 53.67886719 86.48099121 54.32666016 87.60400391 C57.71827017 93.48988619 61.09427695 99.38432202 64.45507812 105.2878418 C71.10727086 116.97292894 77.9231682 128.55721567 84.79638672 140.11352539 C87.61422709 137.60517419 89.25362395 134.81429601 91.09716797 131.53930664 C91.73750977 130.40887939 92.37785156 129.27845215 93.03759766 128.11376953 C93.37496948 127.51307648 93.71234131 126.91238342 94.05993652 126.29348755 C95.84909874 123.10821455 97.65408214 119.93191038 99.45654297 116.75415039 C100.00482254 115.78591087 100.00482254 115.78591087 100.56417847 114.79811096 C104.00566255 108.72655232 107.51733776 102.69707386 111.04638672 96.67602539 C115.8106357 88.53593135 120.52511013 80.36983981 125.19458008 72.17504883 C131.03528156 61.92860853 136.93894818 51.71859814 142.83789062 41.50561523 C144.83972954 38.03845619 146.83985813 34.57031629 148.83935547 31.10180664 C149.50886522 29.94058944 150.17838015 28.77937522 150.84790039 27.61816406 C152.102161 25.44265603 153.35624419 23.26704569 154.61010742 21.09130859 C155.75986884 19.09756482 156.91443976 17.1065855 158.07421875 15.11865234 C159.2852094 13.00551314 160.46025513 10.87156731 161.60839844 8.72363281 C162.50196045 7.08551636 162.50196045 7.08551636 163.41357422 5.41430664 C163.94063965 4.42084229 164.46770508 3.42737793 165.01074219 2.40380859 C166.79638672 0.11352539 166.79638672 0.11352539 169.40942383 -0.70703125 C175.19272486 -0.97627036 179.01566822 0.7833764 183.38598633 4.44555664 C185.71889663 7.20450474 185.45185598 9.68611924 185.3359375 13.18774414 C184.24097779 19.12529941 180.84816205 24.03247331 177.73388672 29.11352539 C177.00212518 30.34350887 176.27258826 31.57481831 175.54516602 32.80737305 C174.04653734 35.34150632 172.53745049 37.86892928 171.02001953 40.3918457 C167.63107398 46.04155489 164.37948514 51.7697169 161.10888672 57.48852539 C157.45577937 63.86447882 153.76377958 70.20357779 149.89794922 76.45336914 C149.28137451 77.46028809 148.6647998 78.46720703 148.02954102 79.50463867 C146.86170616 81.40461309 145.67898938 83.29554728 144.47924805 85.17553711 C143.7061731 86.43841553 143.7061731 86.43841553 142.91748047 87.72680664 C142.22803345 88.82182495 142.22803345 88.82182495 141.5246582 89.93896484 C140.56110462 92.14296801 140.56110462 92.14296801 141.46850586 94.5390625 C142.89193424 97.29877059 144.3622755 100.00580937 145.92138672 102.69165039 C146.54134521 103.76302246 147.16130371 104.83439453 147.80004883 105.93823242 C148.45884033 107.0685791 149.11763184 108.19892578 149.79638672 109.36352539 C150.47313843 110.52989122 151.14965077 111.69639595 151.82592773 112.86303711 C157.10985695 121.96969126 162.4333907 131.05321682 167.79638672 140.11352539 C170.48720151 136.88085564 172.7352348 133.68575342 174.75732422 130.00024414 C175.30396729 129.0120166 175.85061035 128.02378906 176.41381836 127.00561523 C176.99381592 125.94810059 177.57381348 124.89058594 178.17138672 123.80102539 C182.96997177 115.1374567 187.84325918 106.52832456 192.85888672 97.98852539 C197.40849653 90.23520564 201.89109623 82.44976292 206.29638672 74.61352539 C211.34227161 65.64186666 216.48107153 56.72869257 221.68896484 47.85009766 C224.4604348 43.12483469 227.21555095 38.39290123 229.91357422 33.62524414 C230.40196777 32.76640625 230.89036133 31.90756836 231.39355469 31.02270508 C232.29204294 29.43963945 233.18484266 27.85332339 234.0703125 26.26293945 C241.33451631 13.50501878 252.44511947 4.67917135 266.70116425 0.56364155 C270.31647009 -0.21303377 274.00591698 -0.0517668 277.68896484 -0.06347656 C278.58710907 -0.07004776 279.4852533 -0.07661896 280.41061401 -0.08338928 C283.38295583 -0.10309654 286.35524705 -0.11478215 289.32763672 -0.12475586 C290.34605148 -0.12883139 291.36446625 -0.13290691 292.41374207 -0.13710594 C297.80919186 -0.15796051 303.20461629 -0.1722622 308.60009766 -0.18164062 C314.15018881 -0.1926748 319.69987571 -0.22704203 325.24982452 -0.26681232 C329.53605855 -0.29307208 333.82219787 -0.30134099 338.10850525 -0.3049221 C340.15285456 -0.30976765 342.19720023 -0.32132303 344.24147034 -0.3399601 C362.24565969 -0.49383404 377.01555457 2.15024415 390.65576172 14.81274414 C396.64458482 21.24963612 400.61209925 28.62840869 402.79638672 37.11352539 C402.96549561 37.72607178 403.13460449 38.33861816 403.30883789 38.96972656 C406.13009371 51.37505823 404.35681996 64.30810593 397.79638672 75.11352539 C395.81460317 77.87334249 393.7756272 80.47818639 391.53076172 83.02758789 C389.8995359 84.98946759 388.82622427 86.79113663 387.79638672 89.11352539 C388.54082031 89.84442383 388.54082031 89.84442383 389.30029297 90.59008789 C398.99659817 100.70957149 403.96461257 111.8483107 404.04638672 125.80102539 C404.06701172 126.66147461 404.08763672 127.52192383 404.10888672 128.40844727 C404.14574303 134.5219884 403.08555723 139.457886 400.79638672 145.11352539 C400.44318359 146.00942383 400.08998047 146.90532227 399.72607422 147.82836914 C393.68869756 160.55158144 383.75078667 169.11939689 370.58248043 173.9207468 C364.66438279 175.81215815 359.4009278 176.55134663 353.20678711 176.51757812 C351.85584709 176.527873 351.85584709 176.527873 350.47761536 176.53837585 C347.53292583 176.55651305 344.58877576 176.55282525 341.64404297 176.54711914 C339.57718231 176.55168708 337.51032316 176.55699447 335.44346619 176.56300354 C331.12395026 176.57190889 326.80461948 176.56954074 322.48510742 176.55957031 C316.97314482 176.54808176 311.46182299 176.56830394 305.9499445 176.59748745 C301.68517557 176.61590783 297.42055857 176.6155454 293.15575981 176.60984993 C291.12455789 176.60969744 289.09334519 176.61568124 287.06218147 176.6281414 C266.79087279 176.73499817 266.79087279 176.73499817 257.79638672 172.11352539 C256.26884766 171.35749023 256.26884766 171.35749023 254.71044922 170.58618164 C250.1889476 167.80075146 246.33640012 165.13191898 242.79638672 161.11352539 C242.24337891 160.53989258 241.69037109 159.96625977 241.12060547 159.37524414 C231.01537074 148.57757363 228.05663254 136.6531607 228.49560547 122.17211914 C229.25972177 108.81108964 236.07945967 97.09196598 245.79638672 88.11352539 C258.35424647 78.08709191 270.60627612 76.68351334 286.1545372 76.76396561 C289.09088664 76.77783498 292.02657008 76.77118941 294.96292114 76.75912476 C303.30475432 76.72834737 311.64642675 76.73299244 319.98828125 76.75317383 C325.10933319 76.76414949 330.22988215 76.75078104 335.35086441 76.72327805 C337.28912168 76.7178743 339.22743042 76.72180621 341.1656456 76.73567581 C358.01687414 76.96499517 358.01687414 76.96499517 372.77243042 69.46621704 C378.01886344 64.16389155 380.90123517 56.60339852 381.42138672 49.23852539 C381.08220443 42.070473 377.81110128 35.21198203 372.82763672 30.09008789 C366.33266377 24.96905153 360.05672499 23.81393209 351.98046875 23.82299805 C351.11462158 23.81628082 350.24877441 23.8095636 349.35668945 23.80264282 C346.50580036 23.78370738 343.65514721 23.77974098 340.80419922 23.77758789 C338.81411646 23.77115725 336.82403465 23.76442869 334.83395386 23.75741577 C330.66629851 23.74545442 326.49872598 23.74173381 322.33105469 23.74291992 C317.00254772 23.74312313 311.67457396 23.71581379 306.34619331 23.6813755 C302.23682232 23.65909016 298.12757937 23.65508287 294.01815414 23.65613937 C292.05424028 23.65378616 290.09032274 23.64497847 288.12646866 23.62947464 C285.37430165 23.60978009 282.62328099 23.61566601 279.87109375 23.62768555 C279.06771576 23.61644653 278.26433777 23.60520752 277.43661499 23.59362793 C270.88163258 23.66602074 265.77506197 25.62596419 260.7277832 29.84106445 C256.02972236 35.44963782 252.42196283 41.48627541 248.85888672 47.86352539 C247.87575505 49.59509933 246.89261454 51.32666831 245.9090271 53.0579834 C244.88540198 54.86313872 243.86602308 56.6706335 242.84765625 58.47875977 C239.85527487 63.78804701 236.8240419 69.07510265 233.79675293 74.36453247 C232.79194147 76.12129725 231.78856323 77.87887281 230.78564453 79.63671875 C226.25224011 87.58129081 221.68770681 95.50753393 217.10888672 103.42602539 C212.48553504 111.42463382 207.89661246 119.44102631 203.35888672 127.48852539 C201.17207665 131.3639153 198.98477296 135.23902528 196.79638672 139.11352539 C196.46773621 139.69541626 196.13908569 140.27730713 195.80047607 140.87683105 C193.65799166 144.66862375 191.51061595 148.45759262 189.35812378 152.24371338 C188.6597166 153.47366963 187.96267608 154.70440309 187.26712036 155.93597412 C177.91623872 172.48830552 177.91623872 172.48830552 173.92138672 175.55102539 C169.50231815 176.72077884 166.08901272 176.74036046 161.94482422 174.73071289 C157.44976788 171.55353488 155.3207826 166.61607291 152.79638672 161.86352539 C151.66407418 159.79482968 150.52989471 157.72715497 149.39404297 155.66040039 C148.80896973 154.58854492 148.22389648 153.51668945 147.62109375 152.41235352 C144.58570998 146.92478253 141.40949364 141.52077583 138.23388672 136.11352539 C136.56427861 133.26412237 134.8952224 130.41441598 133.22949219 127.56274414 C132.32723616 126.02076247 131.42062047 124.48131542 130.5078125 122.94555664 C127.79638672 118.3333988 127.79638672 118.3333988 127.79638672 116.11352539 C127.13638672 116.11352539 126.47638672 116.11352539 125.79638672 116.11352539 C125.59400391 116.88180664 125.39162109 117.65008789 125.18310547 118.44165039 C123.23391047 123.60289913 120.4311178 128.13510777 117.60888672 132.86352539 C116.34478623 134.99830311 115.08180644 137.13374476 113.81982422 139.26977539 C113.16208008 140.38223633 112.50433594 141.49469727 111.82666016 142.64086914 C109.7464052 146.18149369 107.72514915 149.75406251 105.71044922 153.33227539 C105.03901322 154.51890911 104.36738436 155.70543372 103.69555664 156.8918457 C102.40935926 159.16810291 101.13059756 161.44858123 99.86010742 163.73364258 C98.97585083 165.29066895 98.97585083 165.29066895 98.07373047 166.87915039 C97.56060303 167.79470703 97.04747559 168.71026367 96.51879883 169.65356445 C94.16477015 173.01560456 91.59162331 175.69545659 87.51513672 176.64477539 C86.41685547 176.62930664 86.41685547 176.62930664 85.29638672 176.61352539 C84.19810547 176.62899414 84.19810547 176.62899414 83.07763672 176.64477539 C79.05568931 175.7081575 76.46636224 173.0865397 74.16577148 169.74536133 C73.69453857 168.87169922 73.22330566 167.99803711 72.73779297 167.09790039 C72.19453369 166.10669189 71.65127441 165.1154834 71.09155273 164.09423828 C70.51977295 163.02810303 69.94799316 161.96196777 69.35888672 160.86352539 C68.11078099 158.58514293 66.8607317 156.30782424 65.60888672 154.03149414 C64.97466797 152.87439941 64.34044922 151.71730469 63.68701172 150.52514648 C60.82518025 145.36098934 57.84965422 140.26627769 54.85888672 135.17602539 C53.69197805 133.18528181 52.52531361 131.19439505 51.35888672 129.20336914 C50.77494141 128.2067627 50.19099609 127.21015625 49.58935547 126.18334961 C46.49201633 120.88025289 43.42524814 115.55957604 40.35888672 110.23852539 C39.7363501 109.15837158 39.11381348 108.07821777 38.47241211 106.96533203 C37.21061846 104.77556205 35.94898138 102.58570184 34.6875 100.39575195 C30.93905442 93.88992929 27.1854449 87.38708456 23.43261719 80.88378906 C20.24309877 75.35615258 17.05530851 69.82753158 13.87060547 64.29711914 C1.07484568 42.02150877 1.07484568 42.02150877 -12.14501953 19.99633789 C-14.43722462 15.91942699 -14.998278 11.69148521 -14.20361328 7.11352539 C-10.56634993 0.78903016 -6.82806433 -0.03489691 0 0 Z " fill="#262022" transform="translate(105.20361328125,211.886474609375)"/>
<path d="M0 0 C0.82318222 -0.0065712 1.64636444 -0.0131424 2.49449158 -0.01991272 C5.22215875 -0.0396405 7.94977075 -0.05131004 10.67749023 -0.0612793 C12.07784169 -0.06739259 12.07784169 -0.06739259 13.50648308 -0.07362938 C18.45223647 -0.09449255 23.39796212 -0.10879058 28.34375 -0.11816406 C33.43559309 -0.12920093 38.52699585 -0.16356859 43.61868382 -0.20333576 C47.54712191 -0.22957569 51.47545653 -0.23786266 55.40397453 -0.24144554 C57.27972306 -0.24629611 59.15546744 -0.25786612 61.03112984 -0.27648354 C73.32247743 -0.39085555 83.9498206 -0.32369875 93.45874023 8.53637695 C95.85513821 11.22034269 97.33459857 13.94017981 98.92358398 17.17700195 C99.54233398 18.32168945 99.54233398 18.32168945 100.17358398 19.48950195 C102.44096547 27.61428562 100.81660766 34.84746552 96.92358398 42.17700195 C93.13053946 48.08856968 87.58517529 52.06181984 80.92358398 54.17700195 C77.99178205 54.47177577 75.0741867 54.47078279 72.12939453 54.4675293 C71.25393982 54.47424652 70.37848511 54.48096375 69.47650146 54.48788452 C66.58771051 54.50685302 63.69915206 54.51078825 60.81030273 54.51293945 C58.7963705 54.51936856 56.78243919 54.52609701 54.76850891 54.53311157 C50.54779903 54.54508174 46.32717097 54.5487927 42.10644531 54.54760742 C36.70953092 54.54740434 31.31314373 54.57469679 25.91635418 54.60915184 C21.75636913 54.63143788 17.59651057 54.63544442 13.43647194 54.63438797 C11.44743853 54.63674173 9.45840152 54.6455525 7.46942711 54.6610527 C4.68123314 54.68074546 1.89417094 54.67486161 -0.89404297 54.6628418 C-1.70834274 54.67408081 -2.52264252 54.68531982 -3.36161804 54.69689941 C-10.58718107 54.61812323 -16.71029741 52.14442984 -21.82641602 46.92700195 C-28.51373619 39.64287289 -29.74389255 33.69419457 -29.46704102 23.74731445 C-28.95927814 19.10636173 -27.76900585 15.94286186 -25.07641602 12.17700195 C-24.54016602 11.31075195 -24.00391602 10.44450195 -23.45141602 9.55200195 C-16.68859158 2.78917752 -9.37715442 0.03242295 0 0 Z " fill="#FCFCFC" transform="translate(386.076416015625,310.822998046875)"/>
<path d="M0 0 C25.08 0 50.16 0 76 0 C75.67 1.32 75.34 2.64 75 4 C74.01 4 73.02 4 72 4 C72 3.01 72 2.02 72 1 C48.24 1 24.48 1 0 1 C0 0.67 0 0.34 0 0 Z " fill="#2C2A2B" transform="translate(98,212)"/>
<path d="M0 0 C0.66 1.32 1.32 2.64 2 4 C1.34 4 0.68 4 0 4 C-0.66 6.31 -1.32 8.62 -2 11 C-3.32 10.67 -4.64 10.34 -6 10 C-4.02 6.7 -2.04 3.4 0 0 Z " fill="#312D2E" transform="translate(218,306)"/>
<path d="M0 0 C0.66 0.33 1.32 0.66 2 1 C1.34 2.32 0.68 3.64 0 5 C-1.32 4.34 -2.64 3.68 -4 3 C-2.68 2.01 -1.36 1.02 0 0 Z M-6 4 C-5.34 4.33 -4.68 4.66 -4 5 C-5.32 5.99 -6.64 6.98 -8 8 C-7.34 6.68 -6.68 5.36 -6 4 Z " fill="#EAE7E8" transform="translate(371,314)"/>
<path d="M0 0 C0.33 0 0.66 0 1 0 C0.38461538 6.52307692 0.38461538 6.52307692 -1.5625 8.9375 C-2.036875 9.288125 -2.51125 9.63875 -3 10 C-3.66 9.67 -4.32 9.34 -5 9 C-3.35 6.03 -1.7 3.06 0 0 Z " fill="#312F2F" transform="translate(294,317)"/>
<path d="M0 0 C1 4 1 4 -0.9375 7.25 C-1.618125 8.1575 -2.29875 9.065 -3 10 C-3.66 9.67 -4.32 9.34 -5 9 C-3.35 6.03 -1.7 3.06 0 0 Z " fill="#312F30" transform="translate(243,262)"/>
</svg>
